<mxfile host="app.diagrams.net" modified="2021-04-25T13:23:54.642Z" agent="5.0 (Windows NT 10.0; Win64; x64) AppleWebKit/537.36 (KHTML, like Gecko) Chrome/89.0.4389.105 YaBrowser/21.3.2.193 Yowser/2.5 Safari/537.36" etag="pj2TUoK3oGYIJD5jtUWQ" version="14.6.6" type="github">
  <diagram id="JRoRKzm_lgPKAD5S-B3h" name="Page-1">
    <mxGraphModel dx="1972" dy="638" grid="1" gridSize="10" guides="1" tooltips="1" connect="1" arrows="1" fold="1" page="1" pageScale="1" pageWidth="827" pageHeight="1169" math="0" shadow="0">
      <root>
        <mxCell id="0" />
        <mxCell id="1" parent="0" />
        <mxCell id="t3Y4C3DmPJGHkssCY92b-20" value="" style="edgeStyle=orthogonalEdgeStyle;rounded=0;orthogonalLoop=1;jettySize=auto;html=1;" edge="1" parent="1" source="t3Y4C3DmPJGHkssCY92b-1" target="t3Y4C3DmPJGHkssCY92b-2">
          <mxGeometry relative="1" as="geometry" />
        </mxCell>
        <mxCell id="t3Y4C3DmPJGHkssCY92b-1" value="НАЧАЛО" style="ellipse;whiteSpace=wrap;html=1;" vertex="1" parent="1">
          <mxGeometry x="330" y="20" width="210" height="80" as="geometry" />
        </mxCell>
        <mxCell id="t3Y4C3DmPJGHkssCY92b-21" value="" style="edgeStyle=orthogonalEdgeStyle;rounded=0;orthogonalLoop=1;jettySize=auto;html=1;" edge="1" parent="1" source="t3Y4C3DmPJGHkssCY92b-2" target="t3Y4C3DmPJGHkssCY92b-3">
          <mxGeometry relative="1" as="geometry" />
        </mxCell>
        <mxCell id="t3Y4C3DmPJGHkssCY92b-2" value="Ввод a, b, c" style="shape=parallelogram;perimeter=parallelogramPerimeter;whiteSpace=wrap;html=1;fixedSize=1;" vertex="1" parent="1">
          <mxGeometry x="330" y="130" width="210" height="60" as="geometry" />
        </mxCell>
        <mxCell id="t3Y4C3DmPJGHkssCY92b-6" style="edgeStyle=orthogonalEdgeStyle;rounded=0;orthogonalLoop=1;jettySize=auto;html=1;exitX=0;exitY=0.5;exitDx=0;exitDy=0;entryX=0.5;entryY=0;entryDx=0;entryDy=0;" edge="1" parent="1" source="t3Y4C3DmPJGHkssCY92b-3" target="t3Y4C3DmPJGHkssCY92b-5">
          <mxGeometry relative="1" as="geometry" />
        </mxCell>
        <mxCell id="t3Y4C3DmPJGHkssCY92b-7" style="edgeStyle=orthogonalEdgeStyle;rounded=0;orthogonalLoop=1;jettySize=auto;html=1;exitX=1;exitY=0.5;exitDx=0;exitDy=0;entryX=0.5;entryY=0;entryDx=0;entryDy=0;" edge="1" parent="1" source="t3Y4C3DmPJGHkssCY92b-3" target="t3Y4C3DmPJGHkssCY92b-4">
          <mxGeometry relative="1" as="geometry" />
        </mxCell>
        <mxCell id="t3Y4C3DmPJGHkssCY92b-3" value="a &amp;gt; b?" style="rhombus;whiteSpace=wrap;html=1;" vertex="1" parent="1">
          <mxGeometry x="345" y="210" width="180" height="80" as="geometry" />
        </mxCell>
        <mxCell id="t3Y4C3DmPJGHkssCY92b-16" style="edgeStyle=orthogonalEdgeStyle;rounded=0;orthogonalLoop=1;jettySize=auto;html=1;exitX=0;exitY=0.5;exitDx=0;exitDy=0;entryX=0.5;entryY=0;entryDx=0;entryDy=0;" edge="1" parent="1" source="t3Y4C3DmPJGHkssCY92b-4" target="t3Y4C3DmPJGHkssCY92b-12">
          <mxGeometry relative="1" as="geometry" />
        </mxCell>
        <mxCell id="t3Y4C3DmPJGHkssCY92b-17" style="edgeStyle=orthogonalEdgeStyle;rounded=0;orthogonalLoop=1;jettySize=auto;html=1;exitX=1;exitY=0.5;exitDx=0;exitDy=0;entryX=0.5;entryY=0;entryDx=0;entryDy=0;" edge="1" parent="1" source="t3Y4C3DmPJGHkssCY92b-4" target="t3Y4C3DmPJGHkssCY92b-13">
          <mxGeometry relative="1" as="geometry" />
        </mxCell>
        <mxCell id="t3Y4C3DmPJGHkssCY92b-4" value="b &amp;lt; c?" style="rhombus;whiteSpace=wrap;html=1;" vertex="1" parent="1">
          <mxGeometry x="580" y="310" width="180" height="80" as="geometry" />
        </mxCell>
        <mxCell id="t3Y4C3DmPJGHkssCY92b-14" style="edgeStyle=orthogonalEdgeStyle;rounded=0;orthogonalLoop=1;jettySize=auto;html=1;exitX=0;exitY=0.5;exitDx=0;exitDy=0;entryX=0.5;entryY=0;entryDx=0;entryDy=0;" edge="1" parent="1" source="t3Y4C3DmPJGHkssCY92b-5" target="t3Y4C3DmPJGHkssCY92b-10">
          <mxGeometry relative="1" as="geometry" />
        </mxCell>
        <mxCell id="t3Y4C3DmPJGHkssCY92b-15" style="edgeStyle=orthogonalEdgeStyle;rounded=0;orthogonalLoop=1;jettySize=auto;html=1;exitX=1;exitY=0.5;exitDx=0;exitDy=0;entryX=0.5;entryY=0;entryDx=0;entryDy=0;" edge="1" parent="1" source="t3Y4C3DmPJGHkssCY92b-5" target="t3Y4C3DmPJGHkssCY92b-11">
          <mxGeometry relative="1" as="geometry" />
        </mxCell>
        <mxCell id="t3Y4C3DmPJGHkssCY92b-5" value="a &amp;lt; с?" style="rhombus;whiteSpace=wrap;html=1;" vertex="1" parent="1">
          <mxGeometry x="110" y="310" width="180" height="80" as="geometry" />
        </mxCell>
        <mxCell id="t3Y4C3DmPJGHkssCY92b-8" value="ДА" style="text;html=1;align=center;verticalAlign=middle;resizable=0;points=[];autosize=1;strokeColor=none;" vertex="1" parent="1">
          <mxGeometry x="305" y="230" width="30" height="20" as="geometry" />
        </mxCell>
        <mxCell id="t3Y4C3DmPJGHkssCY92b-9" value="НЕТ" style="text;html=1;align=center;verticalAlign=middle;resizable=0;points=[];autosize=1;strokeColor=none;" vertex="1" parent="1">
          <mxGeometry x="520" y="230" width="40" height="20" as="geometry" />
        </mxCell>
        <mxCell id="t3Y4C3DmPJGHkssCY92b-23" style="edgeStyle=orthogonalEdgeStyle;rounded=0;orthogonalLoop=1;jettySize=auto;html=1;exitX=0.5;exitY=1;exitDx=0;exitDy=0;entryX=0.5;entryY=0;entryDx=0;entryDy=0;" edge="1" parent="1" source="t3Y4C3DmPJGHkssCY92b-10" target="t3Y4C3DmPJGHkssCY92b-22">
          <mxGeometry relative="1" as="geometry" />
        </mxCell>
        <mxCell id="t3Y4C3DmPJGHkssCY92b-10" value="Вывод а" style="whiteSpace=wrap;html=1;" vertex="1" parent="1">
          <mxGeometry x="-10" y="400" width="120" height="50" as="geometry" />
        </mxCell>
        <mxCell id="t3Y4C3DmPJGHkssCY92b-24" value="" style="edgeStyle=orthogonalEdgeStyle;rounded=0;orthogonalLoop=1;jettySize=auto;html=1;" edge="1" parent="1" source="t3Y4C3DmPJGHkssCY92b-11" target="t3Y4C3DmPJGHkssCY92b-22">
          <mxGeometry relative="1" as="geometry" />
        </mxCell>
        <mxCell id="t3Y4C3DmPJGHkssCY92b-11" value="Вывод с" style="whiteSpace=wrap;html=1;" vertex="1" parent="1">
          <mxGeometry x="290" y="400" width="120" height="50" as="geometry" />
        </mxCell>
        <mxCell id="t3Y4C3DmPJGHkssCY92b-26" value="" style="edgeStyle=orthogonalEdgeStyle;rounded=0;orthogonalLoop=1;jettySize=auto;html=1;" edge="1" parent="1" source="t3Y4C3DmPJGHkssCY92b-12" target="t3Y4C3DmPJGHkssCY92b-22">
          <mxGeometry relative="1" as="geometry" />
        </mxCell>
        <mxCell id="t3Y4C3DmPJGHkssCY92b-12" value="Вывод b" style="whiteSpace=wrap;html=1;" vertex="1" parent="1">
          <mxGeometry x="460" y="400" width="120" height="50" as="geometry" />
        </mxCell>
        <mxCell id="t3Y4C3DmPJGHkssCY92b-25" style="edgeStyle=orthogonalEdgeStyle;rounded=0;orthogonalLoop=1;jettySize=auto;html=1;exitX=0.5;exitY=1;exitDx=0;exitDy=0;entryX=0.5;entryY=0;entryDx=0;entryDy=0;" edge="1" parent="1" source="t3Y4C3DmPJGHkssCY92b-13" target="t3Y4C3DmPJGHkssCY92b-22">
          <mxGeometry relative="1" as="geometry" />
        </mxCell>
        <mxCell id="t3Y4C3DmPJGHkssCY92b-13" value="Вывод c" style="whiteSpace=wrap;html=1;" vertex="1" parent="1">
          <mxGeometry x="760" y="400" width="120" height="50" as="geometry" />
        </mxCell>
        <mxCell id="t3Y4C3DmPJGHkssCY92b-22" value="КОНЕЦ" style="ellipse;whiteSpace=wrap;html=1;" vertex="1" parent="1">
          <mxGeometry x="330" y="520" width="210" height="80" as="geometry" />
        </mxCell>
        <mxCell id="t3Y4C3DmPJGHkssCY92b-27" value="ДА" style="text;html=1;align=center;verticalAlign=middle;resizable=0;points=[];autosize=1;strokeColor=none;" vertex="1" parent="1">
          <mxGeometry x="65" y="330" width="30" height="20" as="geometry" />
        </mxCell>
        <mxCell id="t3Y4C3DmPJGHkssCY92b-28" value="НЕТ" style="text;html=1;align=center;verticalAlign=middle;resizable=0;points=[];autosize=1;strokeColor=none;" vertex="1" parent="1">
          <mxGeometry x="290" y="330" width="40" height="20" as="geometry" />
        </mxCell>
        <mxCell id="t3Y4C3DmPJGHkssCY92b-29" value="ДА" style="text;html=1;align=center;verticalAlign=middle;resizable=0;points=[];autosize=1;strokeColor=none;" vertex="1" parent="1">
          <mxGeometry x="540" y="330" width="30" height="20" as="geometry" />
        </mxCell>
        <mxCell id="t3Y4C3DmPJGHkssCY92b-30" value="НЕТ" style="text;html=1;align=center;verticalAlign=middle;resizable=0;points=[];autosize=1;strokeColor=none;" vertex="1" parent="1">
          <mxGeometry x="760" y="330" width="40" height="20" as="geometry" />
        </mxCell>
      </root>
    </mxGraphModel>
  </diagram>
</mxfile>
